<?xml version="1.0" standalone="no"?>
<!DOCTYPE svg PUBLIC "-//W3C//DTD SVG 20010904//EN"
 "http://www.w3.org/TR/2001/REC-SVG-20010904/DTD/svg10.dtd">
<svg version="1.0" xmlns="http://www.w3.org/2000/svg"
 width="513.000000pt" height="461.000000pt" viewBox="0 0 513.000000 461.000000"
 preserveAspectRatio="xMidYMid meet">

<g transform="translate(0.000000,461.000000) scale(0.100000,-0.100000)"
fill="#000000" stroke="none">
<path d="M1665 4299 c-382 -41 -705 -346 -791 -748 -20 -92 -22 -301 -5 -386
63 -308 245 -556 506 -687 156 -79 374 -108 545 -74 174 36 318 111 445 235
151 145 237 305 280 520 26 125 17 344 -19 464 -76 255 -246 468 -464 580
-131 67 -200 86 -377 101 -22 2 -76 0 -120 -5z m274 -313 c258 -87 431 -345
431 -641 0 -168 -43 -298 -144 -431 -78 -104 -200 -187 -321 -219 -76 -19
-214 -19 -289 0 -142 37 -293 153 -368 282 -161 275 -131 614 76 840 165 180
395 243 615 169z"/>
<path d="M3715 4161 c-253 -42 -464 -198 -579 -428 -178 -356 -93 -783 207
-1034 220 -185 547 -225 802 -97 207 102 365 300 426 533 28 103 30 297 5 399
-50 208 -161 377 -322 492 -154 110 -366 163 -539 135z m197 -292 c168 -35
319 -186 374 -375 25 -85 23 -230 -5 -314 -89 -276 -343 -422 -594 -343 -74
23 -132 60 -195 123 -212 211 -209 567 5 779 122 119 260 162 415 130z"/>
<path d="M3570 2340 c-284 -53 -568 -204 -747 -399 l-51 -56 -69 46 c-258 173
-490 258 -793 289 -333 35 -713 -52 -1000 -228 -325 -200 -575 -501 -698 -842
-78 -218 -102 -366 -102 -639 l0 -201 1650 0 1650 0 0 205 0 205 860 0 860 0
0 373 0 373 -54 109 c-136 277 -336 483 -617 634 -97 52 -290 116 -413 136
-129 20 -353 18 -476 -5z m386 -275 c338 -31 688 -277 849 -595 63 -125 110
-289 117 -410 l3 -45 -786 -3 -785 -2 -28 87 c-55 173 -164 372 -286 521 -36
45 -49 69 -45 82 8 24 131 134 210 187 162 108 352 172 555 186 46 4 91 2 196
-8z m-1921 -154 c295 -64 541 -209 743 -436 199 -223 325 -529 335 -810 l2
-70 -1355 0 -1355 0 2 83 c2 101 24 218 65 337 167 490 598 844 1113 914 107
15 345 5 450 -18z"/>
</g>
</svg>
