<?xml version="1.0" standalone="no"?>
<!DOCTYPE svg PUBLIC "-//W3C//DTD SVG 20010904//EN"
 "http://www.w3.org/TR/2001/REC-SVG-20010904/DTD/svg10.dtd">
<svg version="1.0" xmlns="http://www.w3.org/2000/svg"
 width="512.000000pt" height="512.000000pt" viewBox="0 0 512.000000 512.000000"
 preserveAspectRatio="xMidYMid meet">

<g transform="translate(0.000000,512.000000) scale(0.100000,-0.100000)"
fill="#000000" stroke="none">
<path d="M2540 4889 c-792 -91 -1489 -590 -1836 -1314 -29 -60 -77 -181 -105
-268 l-52 -157 -93 139 c-93 140 -121 168 -183 189 -166 57 -326 -122 -252
-283 10 -22 129 -207 264 -412 214 -323 252 -375 289 -397 57 -33 89 -40 145
-31 39 6 110 49 436 268 428 288 437 295 445 393 8 101 -55 198 -145 223 -87
25 -126 10 -324 -125 -93 -63 -171 -114 -174 -114 -23 0 52 216 130 375 67
138 143 258 231 366 83 102 269 277 374 351 204 145 492 268 745 318 155 31
455 39 615 16 1182 -171 1920 -1351 1549 -2480 -302 -921 -1244 -1463 -2197
-1266 -272 57 -572 199 -792 377 -99 80 -262 249 -332 344 -84 113 -136 149
-219 149 -129 0 -230 -131 -199 -259 26 -111 323 -443 540 -605 414 -309 887
-466 1400 -466 366 0 690 75 1015 234 699 342 1170 992 1280 1766 22 151 25
477 6 622 -56 440 -229 850 -499 1188 -379 473 -930 781 -1532 855 -134 16
-404 18 -530 4z"/>
<path d="M2718 3840 c-52 -16 -98 -52 -126 -98 l-27 -47 0 -595 c0 -576 1
-596 20 -632 29 -54 702 -727 745 -746 39 -16 122 -19 161 -4 40 16 88 61 109
103 24 46 26 125 5 175 -9 23 -128 151 -320 346 l-305 309 0 520 c0 492 -1
522 -19 557 -48 92 -151 140 -243 112z"/>
</g>
</svg>
