<?xml version="1.0" standalone="no"?>
<!DOCTYPE svg PUBLIC "-//W3C//DTD SVG 20010904//EN"
 "http://www.w3.org/TR/2001/REC-SVG-20010904/DTD/svg10.dtd">
<svg version="1.0" xmlns="http://www.w3.org/2000/svg"
 width="512.000000pt" height="496.000000pt" viewBox="0 0 512.000000 496.000000"
 preserveAspectRatio="xMidYMid meet">

<g transform="translate(0.000000,496.000000) scale(0.100000,-0.100000)"
fill="#000000" stroke="none">
<path d="M2583 4922 c-56 -45 -84 -80 -141 -177 -97 -166 -223 -235 -432 -235
-225 -1 -382 -78 -537 -265 -172 -208 -279 -443 -372 -817 -111 -447 -141
-820 -141 -1760 l0 -468 1410 0 1410 0 0 254 c0 277 -6 331 -49 421 -30 63
-143 182 -352 368 -53 47 -118 110 -145 140 -45 49 -537 681 -558 716 -5 8 19
-7 55 -36 81 -64 177 -117 253 -138 71 -21 212 -23 276 -4 25 7 83 12 130 12
98 0 147 -16 255 -82 39 -23 104 -59 145 -79 69 -34 82 -37 166 -37 84 0 96 3
160 35 61 31 82 50 192 180 164 192 190 249 162 352 -20 71 30 29 -875 742
-264 209 -506 404 -539 435 -122 117 -176 236 -176 392 l0 89 -124 0 -124 0
-49 -38z"/>
<path d="M1060 869 c-14 -6 -36 -20 -49 -32 -13 -12 -102 -179 -197 -370 -177
-354 -187 -381 -164 -441 l10 -26 1740 0 1740 0 10 26 c23 60 13 87 -164 441
-95 191 -184 358 -197 370 -13 12 -37 26 -52 32 -38 15 -2641 14 -2677 0z"/>
</g>
</svg>
