<?xml version="1.0" standalone="no"?>
<!DOCTYPE svg PUBLIC "-//W3C//DTD SVG 20010904//EN"
 "http://www.w3.org/TR/2001/REC-SVG-20010904/DTD/svg10.dtd">
<svg version="1.0" xmlns="http://www.w3.org/2000/svg"
 width="512.000000pt" height="512.000000pt" viewBox="0 0 512.000000 512.000000"
 preserveAspectRatio="xMidYMid meet">

<g transform="translate(0.000000,512.000000) scale(0.100000,-0.100000)"
fill="#000000" stroke="none">
<path d="M2380 5110 c-691 -50 -1332 -377 -1777 -905 -245 -292 -437 -668
-526 -1035 -95 -386 -95 -834 0 -1220 85 -350 268 -719 494 -996 351 -432 847
-747 1379 -877 386 -95 834 -95 1220 0 532 130 1028 445 1379 877 226 277 409
646 494 996 95 386 95 834 0 1220 -246 1007 -1092 1773 -2118 1919 -164 23
-396 32 -545 21z m450 -305 c393 -47 764 -196 1090 -438 122 -91 356 -325 447
-447 250 -337 402 -726 444 -1135 14 -145 7 -428 -16 -569 -62 -390 -229 -770
-468 -1065 l-60 -73 -37 113 c-98 307 -258 552 -510 782 -127 117 -349 254
-502 312 -27 10 -48 21 -48 26 0 4 26 28 59 53 172 132 307 340 368 566 35
128 43 334 18 465 -89 474 -472 826 -952 874 -551 56 -1055 -325 -1158 -874
-25 -131 -17 -337 18 -465 61 -226 196 -434 368 -566 33 -25 59 -49 59 -54 0
-4 -30 -20 -67 -35 -97 -38 -224 -108 -330 -181 -102 -71 -287 -244 -362 -338
-143 -179 -256 -398 -318 -615 l-19 -65 -60 75 c-240 295 -407 674 -469 1065
-23 141 -30 424 -16 569 42 409 194 798 444 1135 91 122 325 356 447 447 322
239 695 390 1080 438 141 17 408 18 550 0z m-94 -845 c286 -68 490 -267 580
-565 25 -83 26 -294 1 -385 -70 -255 -271 -470 -512 -546 -316 -100 -630 -9
-848 246 -55 64 -128 207 -154 300 -25 91 -24 302 1 385 89 296 292 495 575
565 104 25 252 26 357 0z m-35 -1850 c640 -65 1162 -534 1289 -1160 11 -54 20
-104 20 -112 0 -16 -137 -122 -245 -190 -737 -464 -1673 -464 -2410 0 -108 68
-245 174 -245 190 0 8 9 58 20 112 62 302 212 564 450 784 301 279 713 417
1121 376z"/>
</g>
</svg>
