<?xml version="1.0" standalone="no"?>
<!DOCTYPE svg PUBLIC "-//W3C//DTD SVG 20010904//EN"
 "http://www.w3.org/TR/2001/REC-SVG-20010904/DTD/svg10.dtd">
<svg version="1.0" xmlns="http://www.w3.org/2000/svg"
 width="513.000000pt" height="488.000000pt" viewBox="0 0 513.000000 488.000000"
 preserveAspectRatio="xMidYMid meet">

<g transform="translate(0.000000,488.000000) scale(0.100000,-0.100000)"
fill="#000000" stroke="none">
<path d="M2486 4344 c-57 -18 -65 -23 -214 -132 -63 -45 -124 -84 -135 -87
-12 -2 -101 -6 -197 -8 -205 -5 -244 -15 -320 -84 -62 -56 -87 -103 -135 -258
-20 -66 -46 -136 -56 -155 -13 -23 -66 -68 -150 -129 -185 -134 -219 -181
-227 -311 -4 -69 0 -88 47 -236 28 -88 51 -168 51 -178 0 -10 -23 -91 -51
-180 -47 -148 -51 -167 -47 -236 7 -121 44 -176 193 -288 l58 -44 -317 -317
c-339 -340 -335 -335 -301 -400 15 -30 11 -28 401 -180 l131 -51 72 -188 c126
-324 128 -328 166 -346 21 -10 45 -14 62 -10 19 4 150 128 409 386 l381 380
64 -45 c144 -100 270 -101 415 -1 l67 46 376 -376 c207 -206 389 -380 404
-386 36 -13 69 -5 95 23 12 12 64 132 116 266 53 134 98 246 100 248 2 3 114
47 248 100 134 52 253 104 265 115 28 26 38 70 23 100 -7 13 -150 161 -318
330 -184 185 -303 311 -297 316 6 5 43 32 83 61 80 58 127 119 148 189 25 82
18 142 -36 306 -27 84 -50 165 -50 181 0 16 22 97 50 181 55 167 61 224 35
310 -24 79 -70 129 -220 238 l-140 102 -60 175 c-76 221 -108 266 -231 321
-43 19 -72 22 -244 27 l-195 6 -127 93 c-69 51 -147 101 -172 112 -62 28 -158
34 -220 14z m264 -270 c63 -47 142 -98 175 -114 59 -30 63 -30 225 -30 91 0
182 -4 203 -9 66 -16 82 -40 142 -220 30 -92 67 -184 81 -205 15 -21 87 -83
168 -142 139 -104 176 -143 176 -191 0 -13 -22 -93 -50 -178 -39 -121 -50
-169 -50 -220 0 -51 11 -99 50 -220 28 -85 50 -165 50 -178 0 -48 -37 -87
-176 -191 -81 -59 -153 -121 -168 -142 -14 -21 -51 -114 -82 -206 -77 -232
-62 -221 -328 -228 -235 -7 -216 0 -409 -140 -69 -49 -139 -93 -155 -96 -47
-9 -78 6 -213 104 -184 133 -162 126 -394 132 -129 3 -208 10 -222 18 -40 23
-62 63 -104 195 -70 223 -82 239 -278 381 -124 89 -151 121 -151 177 0 12 23
92 50 179 36 113 50 173 50 215 0 42 -14 102 -50 215 -27 87 -50 167 -50 179
0 44 28 88 81 126 179 130 239 179 264 216 15 23 50 110 77 193 78 239 63 229
332 236 234 7 216 0 401 135 66 49 131 92 145 96 51 16 93 -1 210 -87z m-1266
-2316 c49 -158 73 -205 136 -261 77 -70 115 -80 325 -84 99 -3 183 -8 187 -12
4 -3 -127 -141 -292 -306 -189 -189 -303 -296 -309 -290 -5 6 -41 93 -81 195
-39 102 -81 195 -93 207 -12 12 -105 54 -207 93 -102 39 -189 76 -195 81 -6 6
79 98 235 254 135 135 248 245 251 245 3 0 23 -55 43 -122z m2486 -123 c151
-151 241 -248 235 -253 -6 -5 -99 -44 -208 -87 -164 -64 -200 -81 -211 -103
-8 -15 -44 -106 -81 -202 -38 -96 -72 -179 -77 -185 -5 -6 -125 107 -308 290
-165 165 -296 303 -292 306 4 4 88 9 187 11 169 3 183 5 235 29 69 32 124 79
154 133 13 22 43 101 67 174 24 72 46 132 49 132 3 0 115 -110 250 -245z"/>
<path d="M2527 3629 c-10 -6 -69 -113 -131 -238 l-114 -227 -246 -36 c-213
-30 -250 -38 -270 -57 -28 -27 -38 -65 -25 -99 5 -14 89 -102 185 -196 l176
-171 -41 -236 c-23 -130 -41 -247 -41 -259 0 -12 13 -35 29 -51 48 -48 71 -42
313 85 l217 114 218 -114 c256 -133 289 -140 329 -63 15 30 14 44 -26 276
l-43 245 182 182 c169 169 181 184 181 218 0 24 -8 46 -23 64 -22 25 -36 28
-272 63 l-249 36 -112 225 c-88 178 -118 229 -139 238 -32 15 -74 15 -98 1z
m128 -453 c37 -80 78 -154 90 -166 18 -17 55 -26 191 -47 93 -13 171 -27 174
-30 3 -2 -52 -61 -123 -129 -148 -145 -141 -121 -102 -338 14 -77 25 -146 25
-153 0 -8 -63 20 -156 68 -128 67 -161 80 -187 76 -18 -3 -95 -39 -172 -80
-91 -48 -141 -69 -143 -61 -2 7 8 77 22 157 14 79 26 156 26 172 0 23 -24 53
-127 156 -70 71 -125 131 -122 133 2 2 72 14 154 25 83 12 165 28 182 36 28
13 44 37 110 170 43 85 80 155 84 155 3 0 36 -65 74 -144z"/>
</g>
</svg>
